<mxfile host="app.diagrams.net" agent="Mozilla/5.0 (Windows NT 10.0; Win64; x64) AppleWebKit/537.36 (KHTML, like Gecko) Chrome/136.0.0.0 Safari/537.36" version="27.0.8">
  <diagram name="Pagina-1" id="WK_eqdap8FfUAEIMqD7l">
    <mxGraphModel dx="1281" dy="562" grid="1" gridSize="10" guides="1" tooltips="1" connect="1" arrows="1" fold="1" page="1" pageScale="1" pageWidth="827" pageHeight="1169" math="0" shadow="0">
      <root>
        <mxCell id="0" />
        <mxCell id="1" parent="0" />
        <mxCell id="BnlCj_4WkhqGs2TMRDMO-1" value="&lt;div&gt;Utente&lt;/div&gt;&lt;div&gt;&lt;br&gt;&lt;/div&gt;&lt;div&gt;id PK&lt;/div&gt;&lt;div&gt;nome&lt;/div&gt;&lt;div&gt;&lt;br&gt;&lt;/div&gt;&lt;div&gt;cognome&lt;/div&gt;&lt;div&gt;dataNascita&lt;/div&gt;" style="whiteSpace=wrap;html=1;aspect=fixed;" parent="1" vertex="1">
          <mxGeometry x="30" y="20" width="170" height="170" as="geometry" />
        </mxCell>
        <mxCell id="WR7tYO8ZXnBSombH8x6c-1" value="&lt;div&gt;ElementoCatalogo&lt;/div&gt;&lt;div&gt;&lt;br&gt;&lt;/div&gt;&lt;div&gt;PK&lt;/div&gt;&lt;div&gt;iisbn&lt;/div&gt;&lt;div&gt;anno Pubblicazione&lt;/div&gt;&lt;div&gt;tipo&lt;/div&gt;" style="whiteSpace=wrap;html=1;aspect=fixed;" vertex="1" parent="1">
          <mxGeometry x="300" y="20" width="180" height="180" as="geometry" />
        </mxCell>
        <mxCell id="WR7tYO8ZXnBSombH8x6c-2" value="" style="shape=flexArrow;endArrow=classic;html=1;rounded=0;" edge="1" parent="1">
          <mxGeometry width="50" height="50" relative="1" as="geometry">
            <mxPoint x="220" y="104.5" as="sourcePoint" />
            <mxPoint x="290" y="104.5" as="targetPoint" />
          </mxGeometry>
        </mxCell>
        <mxCell id="WR7tYO8ZXnBSombH8x6c-3" value="" style="shape=flexArrow;endArrow=classic;html=1;rounded=0;" edge="1" parent="1">
          <mxGeometry width="50" height="50" relative="1" as="geometry">
            <mxPoint x="490" y="110" as="sourcePoint" />
            <mxPoint x="550" y="110" as="targetPoint" />
            <Array as="points">
              <mxPoint x="500" y="110" />
            </Array>
          </mxGeometry>
        </mxCell>
        <mxCell id="WR7tYO8ZXnBSombH8x6c-7" value="&lt;div&gt;Prestito&lt;/div&gt;&lt;div&gt;&lt;br&gt;&lt;/div&gt;&lt;div&gt;PK&lt;/div&gt;&lt;div&gt;utente_id FK&lt;/div&gt;&lt;div&gt;elemento_isbn&lt;/div&gt;&lt;div&gt;dafaPrestito&lt;/div&gt;&lt;div&gt;data&lt;/div&gt;&lt;div&gt;Restituzione&lt;/div&gt;&lt;div&gt;Prevista&lt;/div&gt;&lt;div&gt;dataRestituzione&lt;/div&gt;&lt;div&gt;Effettiva&lt;/div&gt;" style="whiteSpace=wrap;html=1;aspect=fixed;" vertex="1" parent="1">
          <mxGeometry x="560" y="15" width="180" height="180" as="geometry" />
        </mxCell>
        <mxCell id="WR7tYO8ZXnBSombH8x6c-8" value="" style="shape=flexArrow;endArrow=classic;html=1;rounded=0;" edge="1" parent="1">
          <mxGeometry width="50" height="50" relative="1" as="geometry">
            <mxPoint x="389.5" y="230" as="sourcePoint" />
            <mxPoint x="389.5" y="300" as="targetPoint" />
            <Array as="points">
              <mxPoint x="389.5" y="250" />
            </Array>
          </mxGeometry>
        </mxCell>
        <mxCell id="WR7tYO8ZXnBSombH8x6c-10" value="" style="endArrow=classic;html=1;rounded=0;" edge="1" parent="1">
          <mxGeometry relative="1" as="geometry">
            <mxPoint x="200" y="310" as="sourcePoint" />
            <mxPoint x="520" y="310" as="targetPoint" />
          </mxGeometry>
        </mxCell>
        <mxCell id="WR7tYO8ZXnBSombH8x6c-11" value="Label" style="edgeLabel;resizable=0;html=1;;align=center;verticalAlign=middle;" connectable="0" vertex="1" parent="WR7tYO8ZXnBSombH8x6c-10">
          <mxGeometry relative="1" as="geometry" />
        </mxCell>
        <mxCell id="WR7tYO8ZXnBSombH8x6c-14" value="" style="endArrow=classic;html=1;rounded=0;" edge="1" parent="1">
          <mxGeometry relative="1" as="geometry">
            <mxPoint x="520" y="310" as="sourcePoint" />
            <mxPoint x="520" y="400" as="targetPoint" />
          </mxGeometry>
        </mxCell>
        <mxCell id="WR7tYO8ZXnBSombH8x6c-16" value="periodicitÃ " style="whiteSpace=wrap;html=1;aspect=fixed;" vertex="1" parent="1">
          <mxGeometry x="480" y="410" width="100" height="100" as="geometry" />
        </mxCell>
        <mxCell id="WR7tYO8ZXnBSombH8x6c-17" value="" style="endArrow=classic;html=1;rounded=0;" edge="1" parent="1">
          <mxGeometry relative="1" as="geometry">
            <mxPoint x="340" y="310" as="sourcePoint" />
            <mxPoint x="340" y="400" as="targetPoint" />
          </mxGeometry>
        </mxCell>
        <mxCell id="WR7tYO8ZXnBSombH8x6c-18" value="Label" style="edgeLabel;resizable=0;html=1;;align=center;verticalAlign=middle;" connectable="0" vertex="1" parent="WR7tYO8ZXnBSombH8x6c-17">
          <mxGeometry relative="1" as="geometry">
            <mxPoint y="-25" as="offset" />
          </mxGeometry>
        </mxCell>
        <mxCell id="WR7tYO8ZXnBSombH8x6c-19" value="rivista" style="whiteSpace=wrap;html=1;aspect=fixed;" vertex="1" parent="1">
          <mxGeometry x="310" y="410" width="100" height="100" as="geometry" />
        </mxCell>
        <mxCell id="WR7tYO8ZXnBSombH8x6c-20" value="" style="endArrow=classic;html=1;rounded=0;" edge="1" parent="1">
          <mxGeometry relative="1" as="geometry">
            <mxPoint x="200" y="320" as="sourcePoint" />
            <mxPoint x="200" y="400" as="targetPoint" />
          </mxGeometry>
        </mxCell>
        <mxCell id="WR7tYO8ZXnBSombH8x6c-21" value="Label" style="edgeLabel;resizable=0;html=1;;align=center;verticalAlign=middle;" connectable="0" vertex="1" parent="WR7tYO8ZXnBSombH8x6c-20">
          <mxGeometry relative="1" as="geometry" />
        </mxCell>
        <mxCell id="WR7tYO8ZXnBSombH8x6c-22" value="&lt;div&gt;Libro&lt;/div&gt;&lt;div&gt;&lt;br&gt;&lt;/div&gt;&lt;div&gt;autore&lt;/div&gt;&lt;div&gt;numeroPagine&lt;/div&gt;&lt;div&gt;genere&lt;/div&gt;" style="whiteSpace=wrap;html=1;aspect=fixed;" vertex="1" parent="1">
          <mxGeometry x="160" y="410" width="100" height="100" as="geometry" />
        </mxCell>
      </root>
    </mxGraphModel>
  </diagram>
</mxfile>
